#!OML:ASF F:\VICON\USERDATA\INSTALL\rory3\rory3.ASF
:FULLY-SPECIFIED
:DEGREES
115
root -0.4193 16.1944 19.0916 18.9333 -19.1439 -3.32572
lowerback -13.7372 5.56048 1.72698
upperback -8.66236 7.10096 -1.67637
thorax -1.05418 3.4421 -1.8003
lowerneck -14.0958 -2.72874 -2.96439
upperneck 25.0746 -4.53134 5.11086
head 10.5517 -1.77264 1.72487
rclavicle -4.99446e-014 -2.18663e-014
rhumerus -62.2718 17.6847 -44.0716
rradius 36.3557
rwrist -4.87988
rhand -8.75827 111.912
rfingers 7.12502
rthumb 17.1791 141.173
lclavicle -4.99446e-014 -2.18663e-014
lhumerus -62.1811 -5.35054 24.4876
lradius 33.6477
lwrist 22.9617
lhand -37.6287 -35.6276
lfingers 7.12502
lthumb -10.6811 -5.91906
rfemur -29.6767 -19.859 -7.39954
rtibia 132.754
rfoot -3.48172 -14.1999
rtoes 34.143
lfemur -36.7478 8.95703 -29.2539
ltibia 50.626
lfoot -26.8968 14.6689
ltoes -4.69352
116
root -0.470857 15.9545 19.3829 17.6318 -18.1708 0.206701
lowerback -12.5525 4.5593 -1.49634
upperback -8.4149 6.12483 -2.55613
thorax -1.69704 3.05444 -1.15783
lowerneck -9.18761 -1.73742 -5.07852
upperneck 19.3767 -3.2895 8.63924
head 7.68333 -1.16585 3.39561
rclavicle -6.44062e-014 -9.54166e-015
rhumerus -63.9002 16.3918 -45.9937
rradius 37.2996
rwrist -4.89164
rhand -8.40306 111.695
rfingers 7.12502
rthumb 17.521 140.926
lclavicle -6.44062e-014 -9.54166e-015
lhumerus -62.1488 -4.7266 27.8457
lradius 34.8584
lwrist 23.4562
lhand -36.3645 -36.5045
lfingers 7.12502
lthumb -9.46152 -6.73689
rfemur -33.2445 -20.7218 -9.59001
rtibia 133.755
rfoot -5.15542 -12.8773
rtoes 34.8855
lfemur -35.158 6.83332 -32.7621
ltibia 50.9389
lfoot -28.793 17.01
ltoes -3.79449
117
root -0.523726 15.739 19.682 16.518 -17.7507 2.06284
lowerback -11.4085 3.98006 -3.14363
upperback -7.76031 5.49941 -3.03769
thorax -1.73816 2.79032 -0.869236
lowerneck -13.5631 -2.6404 -3.20025
upperneck 21.6718 -4.374 5.95199
head 9.25431 -1.67716 2.05372
rclavicle -1.87106e-014 5.56597e-015
rhumerus -64.6581 14.4518 -47.5924
rradius 38.2067
rwrist -4.89012
rhand -8.47346 111.53
rfingers 7.12502
rthumb 17.4532 140.766
lclavicle -1.87106e-014 5.56597e-015
lhumerus -61.1359 -2.52551 30.0691
lradius 34.9658
lwrist 22.5685
lhand -34.4486 -38.9621
lfingers 7.12502
lthumb -7.61262 -9.1191
rfemur -38.1061 -18.722 -7.56213
rtibia 134.144
rfoot -5.91277 -13.3648
rtoes 26.5615
lfemur -33.7081 5.79059 -34.6864
ltibia 51.9889
lfoot -30.5881 18.5989
ltoes -2.32185
118
root -0.562374 15.5413 19.9891 15.7258 -17.1233 2.74587
lowerback -10.1641 3.54386 -3.46462
upperback -7.14653 4.91967 -3.26095
thorax -1.76951 2.50466 -1.03072
lowerneck -14.0773 -2.45099 -2.80363
upperneck 20.5184 -4.12162 5.94117
head 8.93121 -1.53428 1.99956
rclavicle 4.56708e-014 5.56597e-015
rhumerus -64.8963 12.1869 -48.9927
rradius 38.7809
rwrist -4.52754
rhand -8.42894 111.11
rfingers 7.12502
rthumb 17.4961 140.343
lclavicle 4.56708e-014 5.56597e-015
lhumerus -59.9513 -0.291513 32.3327
lradius 35.3413
lwrist 21.6641
lhand -34.86 -37.7765
lfingers 7.12502
lthumb -8.00964 -7.94832
rfemur -42.8626 -14.5181 -3.10093
rtibia 133.55
rfoot -6.17232 -14.9321
rtoes 20.0997
lfemur -32.3527 4.59562 -35.3441
ltibia 53.3847
lfoot -32.6157 19.3237
ltoes 0.235705
119
root -0.598432 15.3572 20.296 14.8723 -16.4746 3.43531
lowerback -8.95249 3.14618 -3.70236
upperback -6.59669 4.37244 -3.5021
thorax -1.84973 2.23221 -1.24142
lowerneck -13.756 -2.21706 -2.74442
upperneck 19.1004 -3.82284 6.36471
head 8.38415 -1.37248 2.15808
rclavicle -1.11071e-013 5.1684e-015
rhumerus -65.2168 10.3326 -50.9424
rradius 39.2908
rwrist -4.43753
rhand -8.16887 110.555
rfingers 7.12502
rthumb 17.7463 139.765
lclavicle -1.11071e-013 5.1684e-015
lhumerus -58.4139 1.54359 35.0139
lradius 35.6014
lwrist 20.9767
lhand -36.6006 -35.4734
lfingers 7.12502
lthumb -9.68929 -5.71626
rfemur -46.7685 -9.75384 0.517869
rtibia 132.227
rfoot -5.17291 -15.0836
rtoes 19.1735
lfemur -30.7401 3.5616 -35.9789
ltibia 54.6105
lfoot -34.534 19.6972
ltoes 0.903965
120
root -0.650674 15.1754 20.5849 13.8898 -16.0267 4.65253
lowerback -7.2939 2.69511 -4.90542
upperback -6.45937 3.7373 -3.69861
thorax -2.68924 1.9595 -0.908985
lowerneck -12.8071 -1.95683 -2.92083
upperneck 17.9737 -3.46373 6.82695
head 7.82981 -1.2057 2.37611
rclavicle 4.70001e-014 1.98785e-015
rhumerus -65.9927 9.41801 -53.4649
rradius 40.0223
rwrist -4.99936
rhand -8.44161 110.301
rfingers 7.12502
rthumb 17.4839 139.535
lclavicle 4.70001e-014 1.98785e-015
lhumerus -56.9115 2.71601 38.169
lradius 35.4218
lwrist 20.2412
lhand -36.2503 -36.935
lfingers 7.12502
lthumb -9.35133 -7.16242
rfemur -50.2975 -5.32282 2.36852
rtibia 130.58
rfoot -4.92077 -15.0008
rtoes 18.9881
lfemur -28.971 3.24264 -37.1276
ltibia 55.4332
lfoot -35.9339 19.8521
ltoes -0.953475
121
root -0.709571 15.0343 20.9045 13.0192 -15.7997 6.03153
lowerback -6.57268 2.37668 -6.27
upperback -6.01663 3.33664 -4.00627
thorax -2.69005 1.79413 -0.511679
lowerneck -10.1583 -1.22077 -3.54635
upperneck 15.2693 -2.41838 8.0139
head 6.44794 -0.737389 2.94646
rclavicle 1.22408e-014 -6.36111e-015
rhumerus -66.2741 8.11959 -56.0207
rradius 40.7503
rwrist -4.49175
rhand -7.78205 109.777
rfingers 7.12502
rthumb 18.1185 138.953
lclavicle 1.22408e-014 -6.36111e-015
lhumerus -54.573 3.68264 41.7887
lradius 35.2864
lwrist 19.389
lhand -36.1695 -37.1066
lfingers 7.12502
lthumb -9.27334 -7.33056
rfemur -54.1379 -0.923552 3.18195
rtibia 128.583
rfoot -5.9481 -15.5855
rtoes 13.2505
lfemur -26.9389 3.5407 -38.4607
ltibia 55.7168
lfoot -37.0703 19.8384
ltoes -4.68381
122
root -0.764719 14.9251 21.256 11.8658 -15.3237 6.8786
lowerback -6.29665 2.13244 -6.82388
upperback -5.04876 3.07774 -4.2474
thorax -1.84037 1.64531 -0.440906
lowerneck -10.397 -1.17562 -3.36677
upperneck 14.9923 -2.33856 7.85873
head 6.3938 -0.700076 2.86973
rclavicle 1.09021e-014 3.18055e-014
rhumerus -65.9259 6.67719 -58.8215
rradius 40.9858
rwrist -4.26175
rhand -7.70376 109.611
rfingers 7.12502
rthumb 18.1939 138.78
lclavicle 1.09021e-014 3.18055e-014
lhumerus -51.4956 4.42972 45.6846
lradius 35.2887
lwrist 18.6824
lhand -37.3321 -35.8772
lfingers 7.12502
lthumb -10.395 -6.15416
rfemur -56.216 3.26148 4.01716
rtibia 125.702
rfoot -6.58912 -16.1106
rtoes 15.0629
lfemur -24.1552 4.27338 -39.1227
ltibia 55.6754
lfoot -37.9611 19.6203
ltoes -7.22691
123
root -0.817213 14.8373 21.6177 11.0517 -14.9863 6.83795
lowerback -4.58151 1.94475 -6.93758
upperback -5.16217 2.6542 -4.03457
thorax -2.91501 1.46737 -0.249177
lowerneck -13.7479 -1.74411 -1.89652
upperneck 18.8068 -3.14103 5.42314
head 8.22055 -1.08816 1.77494
rclavicle 2.30155e-015 3.33958e-014
rhumerus -66.6103 6.77366 -62.0255
rradius 41.5573
rwrist -4.45405
rhand -7.7911 109.796
rfingers 7.12502
rthumb 18.1098 138.973
lclavicle 2.30155e-015 3.33958e-014
lhumerus -49.8587 3.68873 49.8835
lradius 35.7102
lwrist 18.3739
lhand -37.135 -37.8443
lfingers 7.12502
lthumb -10.2049 -8.11182
rfemur -58.4196 7.35429 5.42242
rtibia 122.544
rfoot -6.47658 -17.8845
rtoes 13.8698
lfemur -21.5483 5.58881 -38.8111
ltibia 55.5379
lfoot -38.5477 19.0391
ltoes -10.5173
124
root -0.867761 14.762 21.9938 10.4652 -14.6318 6.4718
lowerback -4.62461 1.73506 -6.55287
upperback -4.16996 2.44768 -3.82525
thorax -1.83195 1.31889 -0.21312
lowerneck -8.79791 -0.293425 -4.7313
upperneck 13.0245 -1.07319 9.52106
head 5.43236 -0.102348 3.70045
rclavicle -4.42544e-014 1.59028e-014
rhumerus -65.283 5.86171 -64.7455
rradius 41.8763
rwrist -4.477
rhand -8.11542 109.857
rfingers 7.12502
rthumb 17.7978 139.063
lclavicle -4.42544e-014 1.59028e-014
lhumerus -46.6171 3.15235 54.5064
lradius 36.5573
lwrist 18.2545
lhand -36.1965 -39.9906
lfingers 7.12502
lthumb -9.29943 -10.2157
rfemur -60.5245 10.7875 6.62684
rtibia 119.109
rfoot -7.62777 -20.1962
rtoes 11.7458
lfemur -18.9644 6.99658 -38.0487
ltibia 55.3446
lfoot -39.0858 17.928
ltoes -13.5336
125
root -0.923709 14.693 22.3807 10.3136 -14.1313 6.04582
lowerback -4.00228 1.39704 -6.4753
upperback -4.3452 1.93126 -3.3913
thorax -2.35104 1.08051 0.156318
lowerneck -13.9138 -1.3455 -2.13066
upperneck 18.9035 -2.52611 5.3618
head 8.25878 -0.816317 1.86311
rclavicle -7.8023e-015 9.14409e-015
rhumerus -64.9704 5.5367 -66.8738
rradius 42.0281
rwrist -3.78286
rhand -8.38611 109.524
rfingers 7.12502
rthumb 17.5373 138.753
lclavicle -7.8023e-015 9.14409e-015
lhumerus -45.0127 0.938689 59.2345
lradius 38.1575
lwrist 18.7137
lhand -35.967 -39.9084
lfingers 7.12502
lthumb -9.07796 -10.1238
rfemur -62.7646 13.179 7.46454
rtibia 115.458
rfoot -8.62309 -22.7871
rtoes 9.07771
lfemur -16.7083 8.04274 -37.094
ltibia 54.949
lfoot -39.5624 16.2081
ltoes -14.7793
126
root -0.981679 14.62 22.7658 10.3604 -13.8325 5.91567
lowerback -3.73316 1.04691 -6.6928
upperback -4.59302 1.43254 -3.07065
thorax -2.75096 0.85648 0.588827
lowerneck -13.4182 -1.05589 -2.31453
upperneck 19.1772 -2.10848 5.38786
head 8.2442 -0.634464 1.95246
rclavicle 1.45361e-014 -1.51076e-014
rhumerus -64.6318 5.26618 -68.9488
rradius 42.5274
rwrist -2.68786
rhand -8.43055 109.292
rfingers 7.12502
rthumb 17.4945 138.524
lclavicle 1.45361e-014 -1.51076e-014
lhumerus -43.3512 -1.5962 63.6183
lradius 39.8195
lwrist 19.3787
lhand -35.7882 -39.9161
lfingers 7.12502
lthumb -8.90538 -10.124
rfemur -65.5395 14.7773 7.54408
rtibia 111.817
rfoot -10.8451 -25.0587
rtoes 10.7625
lfemur -14.8051 8.69767 -36.5084
ltibia 54.3008
lfoot -39.8131 14.3352
ltoes -14.3106
